<svg xmlns="http://www.w3.org/2000/svg" width="176" height="40" viewBox="0 0 176 40"><g><g opacity=".3"><path fill="#fff" d="M175 0h1v40h-1z"/></g><g><path fill="#fff" d="M.773 6.588h5.75v20.239h17.526v5.198H.773zm33.797 6.6c-1.61 1.518-2.415 3.565-2.415 6.141s.805 4.623 2.415 6.14c1.61 1.52 3.641 2.277 6.095 2.277 2.453 0 4.485-.758 6.095-2.277 1.61-1.517 2.415-3.564 2.415-6.14 0-2.576-.805-4.623-2.415-6.14-1.61-1.52-3.642-2.278-6.095-2.278-2.454 0-4.485.759-6.095 2.277zm16.192-3.472c2.775 2.483 4.163 5.687 4.163 9.613 0 3.926-1.388 7.13-4.163 9.614-2.776 2.485-6.141 3.726-10.097 3.726-3.956 0-7.322-1.241-10.097-3.726-2.776-2.484-4.163-5.688-4.163-9.614 0-3.926 1.387-7.13 4.163-9.613 2.775-2.485 6.141-3.727 10.097-3.727 3.956 0 7.321 1.242 10.097 3.727zm40.01-3.128h5.75v25.437h-5.75zm22.237-.6c5.182 0 9.46 1.259 12.834 3.773l-2.76 4.232c-2.79-1.932-6.149-2.897-10.074-2.897-4.11 0-6.164.904-6.164 2.714 0 .674.268 1.157.805 1.448.536.292 1.372.498 2.507.622l7.636.873c5.857.705 8.786 3.25 8.786 7.635 0 2.76-1.196 4.83-3.588 6.21-2.392 1.381-5.597 2.07-9.614 2.07-5.09 0-9.476-1.363-13.156-4.093l2.714-4.462c3.373 2.361 7.068 3.542 11.086 3.542 2.116 0 3.81-.268 5.083-.805 1.272-.536 1.909-1.326 1.909-2.37 0-.704-.215-1.234-.644-1.585-.43-.353-1.18-.59-2.254-.714l-8.556-.966c-2.73-.306-4.807-1.042-6.233-2.209-1.426-1.163-2.139-2.881-2.139-5.15 0-2.577 1.111-4.532 3.335-5.866 2.223-1.334 5.052-2.001 8.487-2.001zm15.844.6h26.45v5.15h-10.35v20.287h-5.75V11.739h-10.35z"/></g><g><path fill="#776dbf" d="M70.807 22.203l-6.375.233v2.935c1.93 1.554 4.492 2.33 7.687 2.33 2.532 0 4.544-.737 6.036-2.213 1.492-1.474 2.238-3.471 2.238-5.987s-.746-4.511-2.238-5.987c-1.492-1.475-3.504-2.214-6.036-2.214-1.99 0-3.595.295-4.816.886-1.22.59-2.343 1.57-3.368 2.935l-4.477-2.61c2.834-4.348 7.024-6.522 12.57-6.522 4.04 0 7.378 1.227 10.015 3.681C84.681 12.124 86 15.4 86 19.501c0 4.1-1.319 7.377-3.957 9.831-2.637 2.454-5.975 3.68-10.015 3.68-3.346 0-6.254-.885-8.726-2.655l-.77 2.004h-3.526V17.404h11.801z"/></g></g></svg>