<svg xmlns="http://www.w3.org/2000/svg" width="102" height="102"><defs><filter id="5pqba" width="140" height="150" x="-19" y="-29" filterUnits="userSpaceOnUse"><feOffset dy="10" in="SourceGraphic" result="FeOffset1083Out"/><feGaussianBlur in="FeOffset1083Out" result="FeGaussianBlur1084Out" stdDeviation="12 12"/></filter><filter id="5pqbc" width="200%" height="200%" x="-50%" y="-50%"><feGaussianBlur in="SourceGraphic" result="FeGaussianBlur1089Out" stdDeviation="8 8"/></filter><mask id="5pqbb" width="2" height="2" x="-1" y="-1"><path fill="#fff" d="M21 11h60v60H21z"/><path d="M51 11c16.569 0 30 13.432 30 30 0 16.569-13.431 30-30 30-16.569 0-30-13.432-30-30.001 0-16.568 13.431-29.998 30-29.998z"/></mask><mask id="5pqbd"><path fill="#fff" d="M51 11c16.569 0 30 13.432 30 30 0 16.569-13.431 30-30 30-16.569 0-30-13.432-30-30.001 0-16.568 13.431-29.998 30-29.998z"/></mask><clipPath id="5pqbe"><path fill="#fff" d="M51 11c16.569 0 30 13.432 30 30 0 16.569-13.431 30-30 30-16.569 0-30-13.432-30-30.001 0-16.568 13.431-29.998 30-29.998z"/></clipPath></defs><g filter="url(#5pqba)"><path fill="none" d="M51 11c16.569 0 30 13.432 30 30 0 16.569-13.431 30-30 30-16.569 0-30-13.432-30-30.001 0-16.568 13.431-29.998 30-29.998z" mask="url(&quot;#5pqbb&quot;)"/><path fill="#303155" fill-opacity=".08" d="M51 11c16.569 0 30 13.432 30 30 0 16.569-13.431 30-30 30-16.569 0-30-13.432-30-30.001 0-16.568 13.431-29.998 30-29.998z"/></g><path fill="#f7f9fa" d="M51 11c16.569 0 30 13.432 30 30 0 16.569-13.431 30-30 30-16.569 0-30-13.432-30-30.001 0-16.568 13.431-29.998 30-29.998z"/><path fill-opacity=".04" d="M5 91V-9h92V91zm16-54.001C21 53.569 34.431 67 51 67c16.569 0 30-13.432 30-30.001C81 20.431 67.569 7.001 51 7.001 34.431 7 21 20.43 21 36.999z" filter="url(#5pqbc)" mask="url(&quot;#5pqbd&quot;)"/><path fill="none" stroke="#fff" stroke-linecap="round" stroke-miterlimit="20" stroke-width="10" d="M51 11c16.569 0 30 13.432 30 30 0 16.569-13.431 30-30 30-16.569 0-30-13.432-30-30.001 0-16.568 13.431-29.998 30-29.998z" clip-path="url(&quot;#5pqbe&quot;)"/><path fill="none" stroke="#22262a" stroke-linecap="round" stroke-miterlimit="20" stroke-width="4" d="M43 40.999v0l5 5v0l11-11v0" opacity=".15"/></svg>