<svg xmlns="http://www.w3.org/2000/svg" width="106" height="106"><defs><filter id="5236a" width="140" height="150" x="-17" y="-27" filterUnits="userSpaceOnUse"><feOffset dy="10" in="SourceGraphic" result="FeOffset1118Out"/><feGaussianBlur in="FeOffset1118Out" result="FeGaussianBlur1119Out" stdDeviation="12 12"/></filter><filter id="5236c" width="200%" height="200%" x="-50%" y="-50%"><feGaussianBlur in="SourceGraphic" result="FeGaussianBlur1124Out" stdDeviation="10 10"/></filter><mask id="5236b" width="2" height="2" x="-1" y="-1"><path fill="#fff" d="M23 13h60v60H23z"/><path d="M53 13c16.568 0 30 13.432 30 30 0 16.569-13.432 30-30 30-16.57 0-30-13.432-30-30.001 0-16.568 13.431-29.998 30-29.998z"/></mask><mask id="5236d"><path fill="#fff" d="M53 13c16.568 0 30 13.432 30 30 0 16.569-13.432 30-30 30-16.57 0-30-13.432-30-30.001 0-16.568 13.431-29.998 30-29.998z"/></mask><clipPath id="5236e"><path fill="#fff" d="M53 13c16.568 0 30 13.432 30 30 0 16.569-13.432 30-30 30-16.57 0-30-13.432-30-30.001 0-16.568 13.431-29.998 30-29.998z"/></clipPath></defs><g filter="url(#5236a)"><path fill="none" d="M53 13c16.568 0 30 13.432 30 30 0 16.569-13.432 30-30 30-16.57 0-30-13.432-30-30.001 0-16.568 13.431-29.998 30-29.998z" mask="url(&quot;#5236b&quot;)"/><path fill="#645ca0" fill-opacity=".15" d="M53 13c16.568 0 30 13.432 30 30 0 16.569-13.432 30-30 30-16.57 0-30-13.432-30-30.001 0-16.568 13.431-29.998 30-29.998z"/></g><path fill="#645ca0" d="M53 13c16.568 0 30 13.432 30 30 0 16.569-13.432 30-30 30-16.57 0-30-13.432-30-30.001 0-16.568 13.431-29.998 30-29.998z"/><path fill="#fff" fill-opacity=".2" d="M3 103V-17h100v120zm20-70.001C23 49.569 36.43 63 53 63c16.568 0 30-13.432 30-30.001C83 16.431 69.568 3.001 53 3.001 36.43 3 23 16.43 23 32.999z" filter="url(#5236c)" mask="url(&quot;#5236d&quot;)"/><path fill="none" stroke="#fff" stroke-linecap="round" stroke-miterlimit="20" stroke-width="10" d="M53 13c16.568 0 30 13.432 30 30 0 16.569-13.432 30-30 30-16.57 0-30-13.432-30-30.001 0-16.568 13.431-29.998 30-29.998z" clip-path="url(&quot;#5236e&quot;)"/><path fill="none" stroke="#fff" stroke-linecap="round" stroke-miterlimit="20" stroke-width="4" d="M45 42.999v0l5 5v0l11-11v0"/></svg>