<svg xmlns="http://www.w3.org/2000/svg" width="54" height="51"><path fill="#c39c81" d="M21.8 35.095c-1.814.258-3.44.494-5.066.717-.237.033-.49.055-.72.01-1.374-.265-2.746-.54-4.113-.84a2.114 2.114 0 01-.843-.39c-2.867-2.275-5.722-4.565-8.58-6.855-.616-.493-.673-.87-.238-1.534.338-.515.667-1.038 1.031-1.534.2-.272.154-.434-.076-.658-.871-.845-1.747-1.69-2.565-2.584a1.835 1.835 0 01-.445-1.075C.132 19.007.16 17.66.165 16.315c.004-.716.272-1 .989-1.091 2.036-.257 4.071-.518 6.185-.786 0-.837.023-1.67-.008-2.5-.023-.603.218-.966.758-1.23 2.227-1.092 4.44-2.215 6.66-3.323.697-.348.95-.311 1.488.229.579.582 1.34 1.085 1.666 1.788.322.694.198 1.595.274 2.453.802.2 1.644.434 2.497.615.602.127.962.453 1.093 1.046.004.018.01.036.017.053.215.594.276 1.354.688 1.734.394.364 1.15.34 1.75.475 1.656.373 3.31.75 4.973 1.095.289.06.634.032.911-.07a53.83 53.83 0 003.01-1.207c.221-.097.442-.33.534-.554.241-.584.409-1.2.61-1.801.154-.46.48-.772.96-.687 1.548.278 2.576-.735 3.865-1.45-.52-.136-.925-.253-1.335-.35-.553-.132-.822-.468-.816-1.039.007-.822-.008-1.643.005-2.465.01-.633.343-.968.97-.984.54-.015 1.082-.003 1.717-.003v-.546c0-1.234-.003-2.466 0-3.7.004-.817.31-1.134 1.104-1.137 1.364-.006 2.728.01 4.091-.008.51-.003.848.196 1.07.652a85.27 85.27 0 001.306 2.6c.079.15.304.345.429.325 1.08-.18 1.83.327 2.443 1.125.304.396.58.396.962.092.422-.335.898-.604 1.343-.912.358-.246.776-.462 1.124-.14.25.232.444.647.457.99.052 1.306 0 2.616.03 3.923.015.623-.2 1.04-.785 1.27-.224.085-.43.216-.704.358.153.307.297.603.445.895.235.462.17.873-.222 1.211-2.054 1.767-4.11 3.528-6.167 5.291-.372.318-.8.386-1.183.095-.83-.63-1.522-.482-2.23.217-.405.399-.909.698-1.337 1.02 0 .08-.006.101.001.115.817 1.421.817 1.42 2.383 1.021.433-.11.874-.196 1.301-.327.437-.135.818-.096 1.114.27.302.374.211.756.008 1.15-.42.813-.808 1.641-1.237 2.449-.164.308-.142.522.081.794.937 1.14 1.839 2.31 2.778 3.446.383.464.43.891.154 1.433-1.128 2.21-2.218 4.44-3.347 6.65a2.268 2.268 0 01-.678.788c-2.803 1.985-5.62 3.952-8.435 5.92-.7.49-.932.476-1.59-.051-1.11-.887-2.225-1.764-3.32-2.667-.274-.227-.449-.214-.714.004-1.112.913-2.239 1.805-3.364 2.701-.624.496-.908.492-1.534-.008-1.357-1.086-2.702-2.184-4.073-3.25-.506-.392-.643-.824-.412-1.414.196-.505.397-1.014.514-1.539.158-.715.24-1.449.37-2.274zM4.068 26.698c.148.124.26.222.375.315 2.42 1.938 4.834 3.885 7.272 5.802.334.263.77.426 1.185.551.515.155 1.054.242 1.589.323.767.117 1.552.34 2.306.268 1.838-.176 3.661-.496 5.49-.755.76-.107 1.176.253 1.198 1.017.044 1.534.084 3.068-.603 4.5-.15.31-.065.506.199.71.915.71 1.822 1.43 2.713 2.169.28.232.465.252.758.01 1.079-.895 2.182-1.759 3.277-2.633.72-.574.944-.575 1.663-.002 1.226.977 2.45 1.957 3.669 2.929.077-.04.13-.059.174-.09 2.617-1.83 5.235-3.657 7.844-5.498.171-.12.307-.322.404-.514.953-1.88 1.885-3.772 2.845-5.65.168-.33.155-.55-.086-.843-.951-1.153-1.867-2.334-2.811-3.493-.337-.413-.397-.812-.139-1.286.28-.512.523-1.044.83-1.663-.614.151-1.1.265-1.584.392-.476.125-.84-.018-1.112-.425-.568-.855-1.149-1.702-1.706-2.566-.33-.511-.247-.944.246-1.32 1.143-.871 2.283-1.75 3.462-2.573.243-.17.769-.26.962-.117 1.029.765 1.788.409 2.498-.44.083-.1.199-.17.298-.255l3.776-3.242c-.208-.43-.406-.808-.577-1.202-.213-.487-.062-.883.38-1.149.336-.201.703-.35 1.042-.543.113-.066.259-.2.263-.306.024-.658.012-1.317.012-2.052-.206.125-.318.186-.423.26-1.442.987-1.494 1.086-2.722-.276-.563-.626-1.162-.919-1.994-.796-.547.081-.91-.186-1.148-.692a69.113 69.113 0 00-1.25-2.503c-.078-.15-.23-.364-.354-.367-.944-.032-1.89-.017-2.869-.017 0 1.451.003 2.832 0 4.211-.002.872-.303 1.164-1.188 1.17h-1.477V9.15c.907.23 1.79.466 2.679.674.46.108.805.324.87.819.062.474-.22.758-.6.984-1.379.82-2.751 1.654-4.133 2.47-.187.111-.434.258-.617.218-1.101-.238-1.428.412-1.595 1.3-.038.199-.145.384-.193.582-.107.442-.386.695-.802.857-1.372.536-2.733 1.101-4.108 1.63a1.505 1.505 0 01-.811.079c-2.608-.562-5.209-1.154-7.814-1.73-.426-.093-.698-.324-.832-.735-.19-.585-.361-1.178-.593-1.748a.843.843 0 00-.481-.437c-.859-.251-1.73-.46-2.6-.67-.555-.132-.827-.466-.818-1.036.006-.373-.039-.752.01-1.12.102-.774-.15-1.355-.763-1.84-.255-.202-.416-.268-.718-.112-1.26.653-2.534 1.274-3.8 1.91-.616.311-1.466.487-1.772.99-.318.523-.124 1.367-.128 2.071-.009 1.7-.07 1.753-1.76 1.943-1.794.201-3.584.446-5.417.677 0 .986-.02 1.938.014 2.886.008.247.129.542.298.72.89.932 1.813 1.834 2.724 2.745.688.69.717.949.19 1.742L4.067 26.7zm45.037 9.169a2.65 2.65 0 012.502 1.743c.322.876.622 1.76.887 2.654.353 1.19-.113 2.384-1.133 3.018-1.053.655-2.311.52-3.249-.353-1.451-1.352-2.054-2.995-1.635-4.96a2.667 2.667 0 012.628-2.102zm.166 1.765c-.655.084-.933.322-1.052.778-.296 1.14.263 2.651 1.246 3.312.325.217.716.283.97-.011.2-.232.383-.643.318-.913a17.136 17.136 0 00-.838-2.535c-.121-.29-.482-.48-.644-.631zM34.787 51c-1.012-.074-1.814-.512-2.272-1.456-.456-.943-.377-1.878.286-2.679a15.242 15.242 0 011.812-1.824c.835-.717 2.033-.678 2.888.013.822.662 1.117 1.83.628 2.779a20.108 20.108 0 01-1.301 2.152c-.476.691-1.201.973-2.04 1.015zm-.023-1.696c.265-.169.525-.251.645-.428a16.13 16.13 0 001.064-1.776c.08-.156.006-.512-.125-.622-.132-.11-.507-.12-.633-.009-.533.466-1.044.966-1.496 1.51-.14.169-.157.548-.07.766.088.217.377.353.615.56zm-15.56-26.006c.579 0 1.159-.023 1.736.008.35.019.484-.117.582-.438.332-1.087.706-2.16 1.048-3.245.142-.452.385-.782.887-.793.53-.012.79.323.939.798.342 1.085.716 2.158 1.047 3.246.1.326.245.438.587.432 1.12-.022 2.24.003 3.36-.013.516-.007.935.115 1.097.657.157.523-.15.84-.536 1.12-.894.641-1.776 1.3-2.678 1.932-.287.202-.374.383-.25.737.378 1.073.701 2.163 1.064 3.242.153.457.122.86-.28 1.152-.401.292-.803.2-1.187-.084-.916-.675-1.848-1.329-2.753-2.02-.293-.223-.492-.204-.774.01-.892.675-1.81 1.319-2.71 1.983-.397.295-.81.419-1.234.106-.427-.314-.413-.744-.256-1.21.346-1.025.654-2.061 1.017-3.079.142-.398.1-.628-.269-.877-.91-.618-1.785-1.288-2.678-1.932-.375-.27-.637-.593-.485-1.086.158-.51.545-.663 1.046-.65.56.016 1.12.004 1.68.004zm2.196 5.761c.521-.377.908-.658 1.296-.937.673-.485.914-.482 1.599.013.375.27.75.543 1.124.816a6.3 6.3 0 00-.377-1.516c-.22-.583-.06-1.006.446-1.345.417-.282.815-.593 1.221-.891-.574-.108-1.093-.113-1.61-.106-.561.007-.909-.245-1.07-.788-.15-.501-.332-.994-.553-1.65l-.346 1.062c-.442 1.366-.455 1.374-1.874 1.374h-.968c.385.41.781.716 1.193.997.5.342.66.769.44 1.35-.18.48-.316.977-.52 1.621zm12.84-7.54a.902.902 0 01-.9.886.9.9 0 01-.885-.9.897.897 0 01.899-.886.9.9 0 01.886.9zm.03 6.268a.901.901 0 01-.918-.866.9.9 0 01.865-.92.902.902 0 01.92.866.904.904 0 01-.866.92zm-.946 2.7a.902.902 0 01.916.87.906.906 0 01-.87.917.902.902 0 01-.915-.871.9.9 0 01.87-.916zm-2.695 3.588a.902.902 0 01.92.867.905.905 0 01-.865.92.903.903 0 01-.92-.866.9.9 0 01.865-.92z"/></svg>