<svg xmlns="http://www.w3.org/2000/svg" width="223" height="50"><path fill="#fff" d="M67.773 11.588h5.75v20.239h17.526v5.198H67.773zm33.797 6.6c-1.61 1.518-2.415 3.565-2.415 6.141s.805 4.623 2.415 6.14c1.61 1.52 3.641 2.277 6.095 2.277 2.453 0 4.485-.758 6.095-2.277 1.61-1.517 2.415-3.564 2.415-6.14 0-2.576-.805-4.623-2.415-6.14-1.61-1.52-3.642-2.278-6.095-2.278-2.454 0-4.485.759-6.095 2.277zm16.192-3.472c2.775 2.483 4.163 5.687 4.163 9.613 0 3.926-1.388 7.13-4.163 9.614-2.776 2.485-6.141 3.726-10.097 3.726-3.956 0-7.322-1.241-10.097-3.726-2.776-2.484-4.163-5.688-4.163-9.614 0-3.926 1.387-7.13 4.163-9.613 2.775-2.485 6.141-3.727 10.097-3.727 3.956 0 7.321 1.242 10.097 3.727zm40.01-3.128h5.75v25.437h-5.75zm22.237-.6c5.182 0 9.46 1.259 12.834 3.773l-2.76 4.232c-2.79-1.932-6.149-2.897-10.074-2.897-4.11 0-6.164.904-6.164 2.714 0 .674.268 1.157.805 1.448.536.292 1.372.498 2.507.622l7.636.873c5.857.705 8.786 3.25 8.786 7.635 0 2.76-1.196 4.83-3.588 6.21-2.392 1.381-5.597 2.07-9.614 2.07-5.09 0-9.476-1.363-13.156-4.093l2.714-4.462c3.373 2.361 7.068 3.542 11.086 3.542 2.116 0 3.81-.268 5.083-.805 1.272-.536 1.909-1.326 1.909-2.37 0-.704-.215-1.234-.644-1.585-.43-.353-1.18-.59-2.254-.714l-8.556-.966c-2.73-.306-4.807-1.042-6.233-2.209-1.426-1.163-2.139-2.881-2.139-5.15 0-2.577 1.111-4.532 3.335-5.866 2.223-1.334 5.052-2.001 8.487-2.001zm15.844.6h26.45v5.15h-10.35v20.287h-5.75V16.739h-10.35z"/><path fill="#776dbf" d="M137.807 27.203l-6.375.233v2.935c1.93 1.554 4.492 2.33 7.687 2.33 2.532 0 4.544-.737 6.036-2.213 1.492-1.474 2.238-3.471 2.238-5.987s-.746-4.511-2.238-5.987c-1.492-1.475-3.504-2.214-6.036-2.214-1.99 0-3.595.295-4.816.886-1.22.59-2.343 1.57-3.368 2.935l-4.477-2.61c2.834-4.348 7.024-6.522 12.57-6.522 4.04 0 7.378 1.227 10.015 3.681 2.638 2.454 3.957 5.73 3.957 9.831 0 4.1-1.319 7.377-3.957 9.831-2.637 2.454-5.975 3.68-10.015 3.68-3.346 0-6.254-.885-8.726-2.655l-.77 2.004h-3.526V22.404h11.801zM26.258 2.217c1.028.083 1.943.173 2.86.22.258.013.542-.054.781-.16C32.055 1.313 34.26.517 36.618.23c1.471-.18 2.936-.169 4.362.31 2.4.806 3.957 2.915 4.147 5.583a13.742 13.742 0 01-.38 4.324c-.09.367-.02.613.205.9 3.644 4.663 5.36 9.97 5.11 15.873-.44 10.395-7.642 19.36-17.734 21.95-7.575 1.942-14.526.445-20.764-4.283-.336-.255-.616-.343-1.045-.243-1.749.406-3.519.585-5.298.188-2.856-.636-4.688-2.82-4.898-5.773-.19-2.67.468-5.177 1.415-7.634.119-.309.203-.641.377-.916.506-.795.469-1.642.404-2.536-.472-6.465 1.354-12.226 5.508-17.19 3.848-4.599 8.797-7.323 14.715-8.25 1.195-.187 2.413-.221 3.516-.317zm11.686 42.63l-1.593-2.796c-.558-.978-.54-1.12.238-1.9.26-.26.507-.537.785-.776.271-.235.372-.497.366-.861-.02-1.38-.01-2.76-.008-4.141.001-.793.135-.977.901-1.234 1.375-.463 2.748-.927 4.128-1.372.295-.096.44-.233.516-.549.484-1.999.978-3.997 1.514-5.982.085-.318.343-.653.615-.845a19.938 19.938 0 012.156-1.33c.427-.227.494-.5.411-.926-.604-3.11-1.775-5.98-3.585-8.584-.11-.156-.23-.306-.308-.409l-3.146 6.42-1.594-.964c.171-.297.31-.533.446-.773 1.083-1.904 2.036-3.866 2.735-5.948.122-.36.084-.588-.184-.868-3.086-3.25-6.802-5.392-11.162-6.411a20.964 20.964 0 00-6.294-.508c-.18.014-.473.133-.507.259-.232.861-.409 1.738-.609 2.634 1.183.395 2.297.76 3.406 1.14 1.783.61 1.49.259 2.047 2.07.263.857.645 1.52 1.466 1.928.456.228.859.564 1.286.851.398.266.538.626.417 1.097-.279 1.084-.526 2.179-.836 3.255a1.57 1.57 0 01-.533.786c-1.929 1.41-3.885 2.784-5.82 4.186-.488.354-.917.36-1.406.01-1.464-1.05-2.942-2.077-4.413-3.115-.328-.23-.646-.475-1.015-.748-.52.538-1.037 1.037-1.507 1.575-.162.185-.29.466-.296.708-.03 1.14.008 2.282-.029 3.422-.01.303-.13.662-.322.892-1.016 1.211-2.183 2.226-3.771 2.626-.141.035-.27.126-.41.159-1.465.345-2.517 1.203-3.142 2.569-.131.288-.263.606-.271.914a78.243 78.243 0 00-.007 3.421c.007.47-.157.81-.54 1.076-.39.272-.76.571-1.124.846.006.075-.003.118.013.146 1.144 2.104 2.618 3.95 4.376 5.57.083.077.24.16.326.13.822-.274 1.636-.574 2.496-.882-.402-.361-.773-.598-1.015-.93-.596-.815-1.131-1.677-1.695-2.515-.256-.381-.253-.751.005-1.13.32-.47.64-.942.946-1.423 1.158-1.824 2.614-3.307 4.667-4.113.187-.075.358-.187.54-.273 1.895-.897 1.371-1.045 3.22.235.809.559 1.596.984 2.627.867.29-.033.673.174.911.386.492.433.914.945 1.395 1.457.9-.786 1.723-1.501 2.561-2.232l1.187 1.28c-.82.732-1.608 1.437-2.397 2.14l-.006.174c.212.04.44.151.635.11.862-.184 1.713-.414 2.569-.623.656-.158 1.01.035 1.243.66.996 2.688.996 2.688.07 5.409-.018.051-.024.115-.059.153-.252.264-.47.598-.777.765-.412.225-.89.341-1.35.464-.392.103-.58.283-.537.72.043.44.074.897-.012 1.32-.07.345-.249.734-.506.958a8.117 8.117 0 01-1.597 1.073c-.696.36-.819.953-.887 1.663 4.353.036 8.342-1.068 12.05-3.363zM6.101 35.012c.6-.246.779-.648.754-1.266-.046-1.156-.204-2.373.09-3.455.264-.961 1.077-1.774 1.647-2.65.01-.016.017-.036.03-.046.25-.204.472-.47.756-.596.871-.389 1.75-.773 2.655-1.066.996-.322 1.816-.863 2.461-1.669.146-.183.27-.44.275-.666.028-1.14-.02-2.281.032-3.42.016-.348.183-.756.416-1.015.713-.79 1.492-1.523 2.247-2.275.616-.615.92-.632 1.62-.126 1.666 1.207 3.34 2.404 5.002 3.618.28.205.479.21.766-.003 1.092-.81 2.155-1.677 3.325-2.36 1.322-.77 2.074-1.806 2.259-3.324.052-.432.027-.685-.372-.872-1.436-.676-2.329-1.767-2.618-3.355-.04-.218-.327-.478-.557-.56-1.399-.503-2.815-.955-4.223-1.43-.746-.253-.911-.562-.743-1.336.198-.905.393-1.811.595-2.742C8.452 6.726.204 22.025 6.1 35.012zm19.657 1.595a.085.085 0 01.003.003l.008.009.005-.004a.812.812 0 01-.016-.008zm-8.095 5.419c.462 0 .894-.004 1.326 0 .718.008.998.246 1.1.95.196 1.345.376 2.693.588 4.035.031.196.174.498.317.532.994.232 2.002.406 3.03.603.097-.367.206-.643.24-.929.115-.944.545-1.666 1.434-2.047 1.223-.525 1.712-1.418 1.444-2.727-.018-.088.001-.184-.003-.275-.022-.534.23-.864.734-1.025a59.736 59.736 0 001.723-.573c.146-.053.347-.13.396-.247.465-1.11.908-2.233.005-3.392-.454.11-.95.235-1.447.349-1.655.379-1.512.686-2.78-.661l-8.107 5.407zm8.095-5.419c-.022-.02-.052-.027 0 0zm22.557-11.944c-.576.352-1.039.586-1.44.9-.234.183-.462.468-.536.75-.509 1.916-.996 3.84-1.445 5.77-.156.671-.5 1.033-1.159 1.228-1.248.37-2.471.823-3.714 1.213-.388.121-.546.292-.535.725a66.508 66.508 0 01-.007 3.916c-.011.331-.184.706-.397.969-.333.408-.764.737-1.156 1.103.276.487.51.901.745 1.313.24.422.484.845.758 1.323 6.18-4.924 9.106-11.248 8.886-19.21zm-23.77 10.564c-.294-.23-.537-.356-.69-.55-.385-.496-.858-.703-1.479-.605-.56.087-1.046-.09-1.481-.447-.17-.138-.392-.22-.544-.374-.813-.823-1.639-.8-2.56-.154-.52.365-1.19.532-1.679.928-1.137.921-2.007 2.09-2.75 3.346-.067.113-.086.332-.021.433.641 1.003 1.231 2.046 2.31 2.684.274.163.457.209.733.044 1.354-.812 2.748-1.561 4.071-2.421 1.353-.877 2.64-1.854 4.09-2.884zm7.978-32.133c4.159 1.18 7.64 3.237 10.717 6.13.104-1.103.2-2.172.083-3.216-.211-1.89-1.164-3.31-3.074-3.83-2.629-.716-5.114.013-7.726.916zM3.254 32.416c-.843 2.29-1.409 4.47-1.13 6.772.223 1.849 1.155 3.197 2.986 3.796 1.198.392 2.428.351 3.659.198.202-.025.402-.072.693-.126-2.996-3.03-5.028-6.498-6.208-10.64zM13.191 43.9a21.47 21.47 0 005.689 3.028l-.468-3.186c-.996.268-1.691-.184-2.357-.746-.105-.09-.314-.165-.426-.122-.794.314-1.575.659-2.438 1.026zm14.831-17.782c0-1.104-.002-2.208.001-3.31.003-.69.174-.922.824-1.11 1.937-.56 3.874-1.121 5.817-1.657a1.68 1.68 0 01.852.002c1.926.53 3.846 1.083 5.765 1.638.7.202.863.427.863 1.14.003 2.207.003 4.414 0 6.619 0 .684-.171.926-.823 1.116-1.955.566-3.91 1.126-5.871 1.67-.232.064-.514.06-.747-.006-1.96-.544-3.912-1.119-5.871-1.665-.565-.158-.82-.492-.813-1.075.012-1.12.003-2.24.003-3.362zm6.16-1.102l-4.37-1.245v5.224l4.37 1.25v-5.23zm6.18-1.241c-1.041.294-2.01.565-2.976.844-.457.131-1.093.149-1.314.457-.238.333-.1.946-.103 1.437-.008 1.225-.002 2.45-.002 3.738L40.362 29v-5.225zm-2.55-1.114l.013-.139c-.909-.252-1.818-.702-2.726-.701-.917 0-1.834.45-2.75.701.849.372 1.672.614 2.5.84.15.04.33.04.48-.001.83-.223 1.656-.465 2.483-.7zm-22.194-9.8h-1.677v-1.718h1.677v1.717zm11.485 3.52H25.4v-1.7h1.702v1.7zM9.51 23.443v-1.698h1.707v1.698H9.51zm14.945 19.439h-1.702v-1.699h1.702v1.699zm16.832-5.305V35.88h1.707v1.697h-1.707zM17.46 34.982h1.697v1.709H17.46v-1.709z"/></svg>