<svg xmlns="http://www.w3.org/2000/svg" width="35" height="36"><path fill="#c39c81" d="M31.234 26.064c.73.724 1.114 1.588 1.114 2.487 0 .892-.377 1.761-1.092 2.508-.312.326-.63.637-.94.935-.456.444-.89.857-1.266 1.313-.007.015-.022.023-.03.036-1.098 1.197-2.501 1.799-4.172 1.799a9.49 9.49 0 01-.455-.015c-2.481-.161-4.701-1.096-6.365-1.886-4.353-2.11-8.164-5.105-11.332-8.895-2.61-3.147-4.36-6.083-5.532-9.254-.477-1.29-1.1-3.262-.926-5.38a5.31 5.31 0 011.57-3.371l2.458-2.488c.008-.005.008-.005.015-.013.723-.695 1.576-1.065 2.459-1.065.882 0 1.721.37 2.422 1.065.47.434.926.9 1.36 1.349.217.231.448.463.672.688l1.975 1.98c1.518 1.521 1.518 3.494 0 5.018-.203.201-.405.413-.608.617-.535.543-1.085 1.108-1.678 1.651.442.979 1.05 1.945 1.953 3.09 1.866 2.298 3.811 4.074 5.952 5.438.21.13.455.254.716.384.18.095.369.19.557.291l2.285-2.286c.73-.731 1.584-1.116 2.473-1.116.897 0 1.743.392 2.444 1.124zm-1.389 1.371l-3.984-3.996-.015-.016c-.224-.247-.593-.527-1.041-.527-.456 0-.847.296-1.092.543l-2.474 2.48c-.122.122-.499.5-1.099.5-.238 0-.47-.06-.716-.182-.029-.015-.058-.035-.086-.05-.21-.13-.456-.253-.717-.386-.289-.145-.593-.295-.889-.484-2.321-1.473-4.426-3.395-6.422-5.859l-.007-.008c-1.1-1.399-1.822-2.574-2.336-3.82l-.022-.066c-.13-.413-.246-1.022.376-1.647.008-.012.022-.02.037-.035a37.535 37.535 0 001.815-1.769c.21-.204.412-.413.622-.624.766-.767.766-1.479 0-2.248L9.82 7.263c-.231-.24-.462-.471-.687-.703-.44-.459-.86-.885-1.301-1.3-.008-.005-.015-.013-.022-.02-.231-.232-.6-.508-1.056-.508-.369 0-.745.181-1.1.515L3.19 7.72a3.33 3.33 0 00-.998 2.154c-.109 1.325.137 2.732.81 4.539 1.092 2.959 2.74 5.714 5.207 8.693 2.986 3.576 6.58 6.394 10.674 8.382 1.497.719 3.493 1.56 5.64 1.698.11.005.225.005.333.005 1.128 0 1.99-.37 2.72-1.152.448-.53.925-1 1.395-1.45.311-.304.6-.579.882-.885-.007.008-.007 0 0 0 .738-.77.738-1.53-.007-2.268zM17.913 7.829a.98.98 0 011.128-.798 11.138 11.138 0 016.038 3.137 11.2 11.2 0 013.132 6.056.98.98 0 01-.803 1.131c-.058.008-.108.016-.166.016a.971.971 0 01-.962-.813 9.249 9.249 0 00-2.589-5.003 9.17 9.17 0 00-4.99-2.597.967.967 0 01-.788-1.129zm15.7 9.228c-.058.008-.108.016-.166.016a.971.971 0 01-.962-.813 16.438 16.438 0 00-4.607-8.91c-2.444-2.444-5.518-4.047-8.888-4.62a.982.982 0 01-.802-1.13.973.973 0 011.12-.798c3.776.645 7.21 2.43 9.944 5.17a18.421 18.421 0 015.157 9.969.96.96 0 01-.796 1.116z"/></svg>