<svg xmlns="http://www.w3.org/2000/svg" width="115" height="42"><path fill="#645ca0" d="M79.733-.034c.442 0 .387.165-.11.385-.498.22-1.107.549-1.328.714-.22.164-.663.548-.995.878-.332.328-.774 1.152-1.05 1.866-.277.713-.443 2.415-.498 3.788-.055 1.372-.055 2.58-.055 2.69 0 .03-.06.044-.168.044-.277 0-.869-.09-1.546-.208-.47-.11-1.438-.166-2.612-.166a47.25 47.25 0 00-3.857.166l-.055-.056a67.04 67.04 0 01-5.136.22c-.712 0-1.296-.02-1.664-.055-1.106-.11-2.488-.22-2.985-.22h-1.051c-.055 0-.11.384-.11.823 0 .44.165 1.976.331 3.35.221 1.372.94 3.458 1.604 4.5.663 1.044 2.432 2.251 3.87 2.636 1.437.328 3.096.659 3.704.659h2.1c.609 0 1.051.054 1.051.164v2.8c0 1.483-.055 3.129-.166 3.733-.11.604-.663 1.207-1.216 1.427-.553.165-3.207.33-5.805.33h-4.92c-.056 0-.167 1.536-.222 3.404 0 1.866.277 4.446.664 5.763.387 1.318.663 2.36.608 2.36H46.783c-.885 0-1.55-.823-1.55-1.756V1.45c0-.824.996-1.483 2.268-1.483h32.232zm11.048 26.74c.718 0 2.317 0 3.53-.11h3.31c.608 0 .884-.655.663-1.421a278.88 278.88 0 00-1.765-5.907 435.87 435.87 0 01-1.876-6.179c-.142-.478-.328-.725-.512-.725-.174 0-.347.22-.481.671-.276.93-1.103 3.719-1.876 6.18l-.055.108c-.772 2.515-1.6 5.195-1.82 5.961-.221.766.165 1.421.882 1.421 0 0-.717 0 0 0zm7.062-26.74c1.71 0 3.806 2.023 4.634 4.484l10.371 30.513c.827 2.46 1.71 5.03 1.93 5.74.22.711-.275 1.258-1.047 1.258h-9.324c-.662 0-1.324-.491-1.489-1.039-.166-.547-.386-1.202-.441-1.476-.056-.274-.277-1.038-.497-1.695-.165-.71-.882-1.256-1.544-1.256H87.858c-.773 0-1.49.436-1.655.983-.166.546-.387 1.312-.497 1.694-.11.329-.33 1.15-.496 1.696-.221.602-.828 1.039-1.38 1.039H73.128c-.11 0-.055-.383.166-.93.22-.546.441-.985.441-.985.055-.054.276-1.037.496-2.24.221-1.203.497-3.118.552-4.265.055-1.15.993-2.625 2.097-3.391 1.103-.766 3.034-2.515 4.247-3.993 1.214-1.474 2.814-4.482 3.531-6.78.717-2.242 1.213-5.905 1.159-8.147-.056-2.242 0-5.031.11-6.343.11-1.312.276-2.625.276-2.898 0-.274.165-.766.33-1.039.166-.274.607-.601.883-.711.276-.11.607-.219.662-.219h9.765zm-59.915 0H1.67C.665-.034-.004.622-.004 1.442v7.601c0 .82.67 1.477 1.506 1.477h10.376c.836 0 1.506.656 1.506 1.476v28.49c0 .82.67 1.475 1.506 1.475h9.65c.837 0 1.507-.655 1.507-1.476V11.94c0-.819.669-1.476 1.506-1.476h10.375c.837 0 1.506-.654 1.506-1.476V1.442c0-.82-.67-1.476-1.506-1.476M81.193 2.3c-.64 0-1.16.522-1.16 1.166 0 .644.52 1.167 1.16 1.167.64 0 1.16-.523 1.16-1.167s-.52-1.166-1.16-1.166"/></svg>