<svg xmlns="http://www.w3.org/2000/svg" width="41" height="29"><path fill="red" d="M.074 16.39v-3.472c.029-.39.05-.78.087-1.168.183-1.96.328-3.924.57-5.878.221-1.799 1.118-3.2 2.738-4.09.815-.45 1.713-.612 2.614-.669C9.046.923 12.01.685 14.976.645c4.493-.06 8.989-.022 13.481.083 2.28.053 4.562.288 6.831.54 2.26.25 3.922 1.755 4.37 3.99.316 1.578.452 3.193.629 4.795.099.897.117 1.805.172 2.708v3.628c-.022.18-.058.358-.064.54-.073 2.193-.204 4.382-.575 6.55-.468 2.732-2.015 4.35-4.739 4.645-2.61.283-5.237.487-7.86.534-4.624.085-9.253.087-13.878-.001-2.636-.05-5.272-.293-7.899-.547-2.49-.242-4.187-1.816-4.636-4.286-.281-1.546-.403-3.123-.562-4.69-.092-.911-.117-1.83-.172-2.745zm16.182-7.78v12.125c3.517-2.027 6.989-4.027 10.526-6.063L16.256 8.611z"/></svg>